<?xml version="1.0" encoding="UTF-8"?>
<svg viewBox="0 0 640 480" xmlns="http://www.w3.org/2000/svg">
 <g fill="#008600" fill-rule="evenodd" stroke-width=".312">
  <path d="m171.49 189.56l16.602-10.133 7.4385 14.649c1.7968 8.0039-8.0494 10.941-15.955 10.464l-8.0854-14.98z"/>
  <path d="m167.72 200.03l-8.7322 15.751 8.7322 15.971 0.2156-6.3884h7.9776c2.9107 0.257 6.6839-1.6889 8.0854-4.516l10.241-19.165c-3.3779 3.4145-7.7213 4.2957-12.721 4.2957h-13.476l-0.3234-5.9479z"/>
  <path d="m148.21 180.61l-16.73-9.9116 8.9252-13.755c5.977-5.49 13.27 1.8798 16.698 9.1735l-8.894 14.494z"/>
  <path d="m159 178.9l17.717 0.1551 9.4283-15.552-5.5714 2.9083-3.8722-7.1262c-1.1929-2.7248-4.6895-5.1508-7.7889-5.0306l-21.371 0.1541c4.5614 1.3601 7.4237 4.8123 9.8505 9.2784l6.5408 12.038-4.9327 3.1759z"/>
  <path d="m118.68 179.79l5.1836 4.05-4.8787 9.3462c-2.4394 4.3096 1.7513 8.5079 4.4213 9.9692 2.6285 1.4386 6.7082 1.6096 10.52 1.5577l6.8606-11.215 5.1836 2.8039-8.9951-16.667-18.295 0.1558z"/>
  <path d="m119.44 201.44l11.13 20.562c2.236 2.8558 6.4541 3.5308 10.825 3.4269h11.739v-19.471l-22.259-0.1558c-3.4557 0.20769-7.9787-0.51923-11.434-4.3615z"/>
 </g>
</svg>
